<svg id="Filled" height="512" viewBox="0 0 512 512" width="512" xmlns="http://www.w3.org/2000/svg"><path d="m392 72s-48-48-136-48-136 48-136 48c-112 104-16 208 24 240s56 64 56 64h112s16-32 56-64 136-136 24-240z" fill="#ffd33a"/><path d="m336 136c20.63-13.09 32-16 56-16 18.19 0 36.84 9.8 44.45 14.08-7.85-20.3-21.96-41.19-44.45-62.08 0 0-48-48-136-48 0 0 64.136 36.347 80 112z" fill="#d13330"/><path d="m176 136s32-32 80-32 80 32 80 32c-15.864-75.653-80-112-80-112s-64.136 36.347-80 112z" fill="#eb423f"/><path d="m176 136c15.864-75.653 80-112 80-112-88 0-136 48-136 48-22.49 20.89-36.6 41.78-44.45 62.08 7.61-4.28 26.26-14.08 44.45-14.08 24 0 35.37 2.91 56 16z" fill="#d13330"/><path d="m436.45 134.08c-7.61-4.28-26.26-14.08-44.45-14.08-24 0-35.37 2.91-56 16 7.215 34.407 9.575 68.958-7.964 119.893 19.631-6.849 35.321-8.758 47.684-7.893 20.37 1.42 31.73 10.32 36.87 16.87 24.58-34.22 43.22-80.73 23.86-130.79z" fill="#a0ab65"/><path d="m176 136c-7.22 34.432-9.579 69.005 8 120 0 0 15.97-23.96 71.86-24 55.89.04 71.86 24 71.86 24 .107-.037.21-.07.316-.107 17.539-50.935 15.179-85.486 7.964-119.893 0 0-32-32-80-32s-80 32-80 32z" fill="#b1bd70"/><path d="m136 248c12.43-.87 28.22 1.06 48 8-17.579-50.995-15.22-85.568-8-120-20.63-13.09-32-16-56-16-18.19 0-36.84 9.8-44.45 14.08-19.33 49.97-.79 96.4 23.73 130.61 5.19-6.53 16.53-15.29 36.72-16.69z" fill="#a0ab65"/><path d="m328.036 255.893c-.106.037-.209.07-.316.107 0 0-15.97-23.96-71.86-24-55.89.04-71.86 24-71.86 24 11.6 33.642 43.264 78.948 72 120 28.736-41.052 60.4-86.358 72-120z" fill="#ffd33a"/><path d="m136 248c-20.19 1.4-31.53 10.16-36.72 16.69a246.869 246.869 0 0 0 44.72 47.31c40 32 56 64 56 64h56c-28.736-41.052-60.4-86.358-72-120-19.78-6.94-35.57-8.87-48-8z" fill="#f2c837"/><path d="m375.72 248c-12.363-.865-28.053 1.044-47.684 7.893l-.036.107c-11.6 33.642-43.264 78.948-72 120h56s16-32 56-64a246.806 246.806 0 0 0 44.59-47.13c-5.14-6.55-16.5-15.45-36.87-16.87z" fill="#f2c837"/><path d="m200 424h112a0 0 0 0 1 0 0v48a16 16 0 0 1 -16 16h-80a16 16 0 0 1 -16-16v-48a0 0 0 0 1 0 0z" fill="#b3947b"/><path d="m312 384a8.019 8.019 0 0 0 7.149-4.41c5.34-10.59 23.466-37.037 53.851-61.343a255.944 255.944 0 0 0 48.558-52.21c19.432-28.162 29.811-56.711 30.848-84.854 1.512-41.035-16.947-79.711-54.864-114.955-3.353-3.304-52.55-50.228-141.542-50.228s-138.189 46.924-141.54 50.228c-37.917 35.244-56.376 73.92-54.86 114.955 1.037 28.143 11.416 56.692 30.848 84.854a255.944 255.944 0 0 0 48.552 52.21c30.383 24.306 48.509 50.754 53.843 61.331a8 8 0 0 0 7.157 4.422h14.556l-5.333 32h-9.223a8 8 0 0 0 -8 8v48a24.028 24.028 0 0 0 24 24h80a24.028 24.028 0 0 0 24-24v-48a8 8 0 0 0 -8-8h-9.223l-5.333-32zm51-78.247c-32.61 26.089-49.754 52.085-55.712 62.247h-35.936c25.161-36.1 51.331-74.988 62.9-105.758 15.311-4.98 29.062-7.09 40.914-6.262 13.711.956 22.15 5.63 26.944 9.595a240.56 240.56 0 0 1 -39.11 40.178zm-107-272.288c11.962 7.993 48.03 35.122 65.607 81.7-15.007-9.2-37.707-19.165-65.607-19.165s-50.6 9.965-65.607 19.167c17.577-46.58 53.645-73.709 65.607-81.702zm-68.207 208.192c-12.121-40.626-10.736-70.514-4.474-101.519 6.881-6.059 34.589-28.138 72.681-28.138s65.817 22.1 72.681 28.138c6.27 31.047 7.651 60.975-4.524 101.686-10.978-7.928-31.94-17.8-68.3-17.824-36.104.026-57.025 9.758-68.064 17.657zm68.061-1.657c26.34.019 42.75 5.67 51.878 10.407a48.905 48.905 0 0 1 11.013 7.571c-11.488 29.667-37.825 68.376-62.745 104.063-24.979-35.772-51.382-74.581-62.827-104.275 5.999-5.532 23.663-17.738 62.681-17.766zm180.561-59.407c-.869 23.591-9.288 47.749-25.027 71.876-12.4-9.745-28.06-11.958-35.11-12.449-10.915-.764-22.987.529-36.031 3.833 11.952-41.245 10.826-72.216 4.692-103.97 16-9.571 25.9-11.883 47.061-11.883 10.685 0 23.759 4.018 37.946 11.636a108.3 108.3 0 0 1 6.469 40.957zm-49.858-102.731q20.626 19.154 32.766 39.5c-9.783-3.528-19.018-5.362-27.323-5.362-21.918 0-34.572 2.642-50.794 11.587-12.122-43.574-39.007-73.243-58.562-90 66.555 8 103.3 43.679 103.711 44.084.066.063.133.129.202.191zm-261.114 0c.065-.059.14-.132.2-.194.409-.405 37.156-36.082 103.711-44.084-19.555 16.76-46.44 46.429-58.562 90-16.22-8.942-28.874-11.584-50.792-11.584-8.305 0-17.54 1.834-27.323 5.357q12.134-20.31 32.766-39.495zm-49.858 102.731a108.3 108.3 0 0 1 6.469-40.957c14.187-7.618 27.261-11.636 37.946-11.636 21.164 0 31.061 2.312 47.061 11.883-6.138 31.774-7.262 62.762 4.713 104.045-13.16-3.363-25.333-4.68-36.328-3.909-7 .485-22.55 2.672-34.929 12.308-15.68-24.08-24.065-48.189-24.932-71.734zm73.415 125.16a240.625 240.625 0 0 1 -39.212-40.318c4.8-3.916 13.2-8.513 26.773-9.455 11.934-.836 25.79 1.308 41.232 6.365 11.583 30.755 37.722 69.593 62.855 105.655h-35.938c-5.958-10.162-23.102-36.158-55.71-62.247zm155 166.247a8.009 8.009 0 0 1 -8 8h-80a8.009 8.009 0 0 1 -8-8v-40h96zm-17.444-56h-61.112l5.333-32h50.446z"/></svg>